# xmcd
# Copyright (C) 1995-1998 Ti Kan
#
# Track frame offsets:
#       150
#       12151
#       26463
#       40180
#       52381
#       68369
#       76506
#       89094
#       99885
#       112993
#
# Disc length: 1995 seconds
#
# Revision: 0
# Processed by: cddbd v1.5.2PL0 Copyright (c) Steve Scherf et al.
# Submitted via: CD-Import v1.0
#
DISCID=6c07c90a
DTITLE=José Gonsalez - In Our Nature
DYEAR=1900
DGENRE=
TTITLE0=How Low
TTITLE1=Down The Line
TTITLE2=Killing For Love
TTITLE3=In Our Nature
TTITLE4=Teardrop
TTITLE5=Abram
TTITLE6=Time To Send Someone Away
TTITLE7=The Nest
TTITLE8=Fold
TTITLE9=Cycling Trivialities
EXTD=
EXTT0=
EXTT1=
EXTT2=
EXTT3=
EXTT4=
EXTT5=
EXTT6=
EXTT7=
EXTT8=
EXTT9=
PLAYORDER=
